<svg width="179" height="48" viewBox="0 0 179 48" fill="none" xmlns="http://www.w3.org/2000/svg">
<path d="M69.2192 18.3502C68.3404 18.3943 67.495 18.7005 66.7917 19.2293C66.0884 19.758 65.5596 20.4853 65.2732 21.3172C64.9822 21.9672 64.9012 22.4802 64.6652 22.4802C64.3332 22.4802 64.5712 22.0342 64.2992 21.0442C64.0918 20.2299 63.6053 19.5143 62.9244 19.022C62.2435 18.5296 61.4114 18.2919 60.5732 18.3502C58.1652 18.3502 57.1342 20.3842 56.6452 21.5022C56.3112 22.2662 56.3102 22.4802 56.0532 22.4802C55.6812 22.4802 55.9892 21.8732 56.1532 21.1602C56.3534 20.3486 56.3803 19.5039 56.2322 18.6812H52.4152V33.0332H57.6252V25.8922C57.6252 24.4832 58.2142 22.6922 59.2252 22.6922C60.3922 22.6922 60.6252 23.5922 60.6252 25.2482V33.0322H65.8562V25.8882C65.8562 24.6342 66.3682 22.6882 67.4632 22.6882C68.6462 22.6882 68.8562 23.9472 68.8562 25.2442V33.0252H73.9932V24.5852C73.9972 20.8472 72.6762 18.3502 69.2192 18.3502Z" fill="#241C15"/>
<path d="M157.649 18.3502C156.77 18.3943 155.925 18.7005 155.222 19.2292C154.518 19.758 153.99 20.4852 153.703 21.3172C153.412 21.9672 153.331 22.4802 153.095 22.4802C152.763 22.4802 152.985 21.9132 152.729 21.0442C152.532 20.2241 152.048 19.5015 151.365 19.0073C150.681 18.5132 149.844 18.2801 149.003 18.3502C146.595 18.3502 145.564 20.3842 145.075 21.5022C144.741 22.2662 144.74 22.4802 144.483 22.4802C144.111 22.4802 144.419 21.8732 144.583 21.1602C144.783 20.3486 144.81 19.5039 144.662 18.6812H140.845V33.0332H146.055V25.8922C146.055 24.4832 146.644 22.6922 147.655 22.6922C148.822 22.6922 149.055 23.5922 149.055 25.2482V33.0322H154.286V25.8882C154.286 24.6342 154.798 22.6882 155.893 22.6882C157.076 22.6882 157.286 23.9472 157.286 25.2442V33.0252H162.423V24.5852C162.427 20.8472 161.106 18.3502 157.649 18.3502Z" fill="#241C15"/>
<path d="M82.8922 18.3532C80.5282 18.3428 78.1899 18.8432 76.0372 19.8202V24.1332C76.0372 24.1332 79.2002 22.3152 81.7652 22.3152C83.8132 22.3152 84.0652 23.4152 83.9712 24.3362C83.1814 24.1986 82.3791 24.1463 81.5782 24.1802C77.3322 24.1802 75.1882 26.1102 75.1882 29.2042C75.1848 29.7755 75.2996 30.3413 75.5251 30.8662C75.7507 31.391 76.0822 31.8636 76.499 32.2544C76.9157 32.6451 77.4087 32.9456 77.947 33.1369C78.4853 33.3282 79.0573 33.4063 79.6272 33.3662C80.6097 33.4034 81.5806 33.1432 82.4128 32.6195C83.2449 32.0958 83.8997 31.3331 84.2912 30.4312C84.5682 29.7762 84.6192 29.3312 84.8682 29.3312C85.1522 29.3312 85.0572 29.6472 85.0432 30.2992C84.994 31.2152 85.0649 32.1336 85.2542 33.0312H89.1812V25.9682C89.1812 21.5622 87.6212 18.3532 82.8922 18.3532ZM81.6232 29.6782C80.3772 29.9662 79.7322 29.5782 79.7322 28.7562C79.7322 27.6252 80.9022 27.1722 82.5722 27.1722C83.3082 27.1722 84.0012 27.2352 84.0012 27.2352C83.8294 27.8029 83.5238 28.3211 83.1102 28.7462C82.6966 29.1713 82.187 29.4909 81.6242 29.6782H81.6232Z" fill="#241C15"/>
<path d="M102.973 14.3352H97.7632V33.0352H102.973V14.3352Z" fill="#241C15"/>
<path d="M108.708 25.8602C108.708 24.5702 109.908 23.3952 112.108 23.3952C113.792 23.4391 115.434 23.928 116.868 24.8122V19.8202C116.868 19.8202 115.344 18.3532 111.599 18.3532C107.651 18.3532 104.363 20.6632 104.363 25.6362C104.363 30.6092 107.347 33.3662 111.589 33.3662C113.51 33.3939 115.38 32.7502 116.877 31.5462V26.8052C115.472 27.7558 113.829 28.2954 112.133 28.3632C109.614 28.3622 108.708 27.2042 108.708 25.8602Z" fill="#241C15"/>
<path d="M127.421 18.3532C124.405 18.3532 123.258 21.2112 123.026 21.7072C122.794 22.2032 122.68 22.4892 122.49 22.4832C122.161 22.4722 122.39 21.8742 122.519 21.4832C123.023 19.8595 123.278 18.1691 123.276 16.4692C123.32 15.7498 123.247 15.028 123.059 14.3322H118.559V33.0322H123.769V25.8912C123.769 24.7282 124.233 22.6912 125.545 22.6912C126.632 22.6912 126.973 23.4972 126.973 25.1192V33.0282H132.183V25.4282C132.186 21.7542 131.575 18.3532 127.421 18.3532Z" fill="#241C15"/>
<path d="M133.879 18.7002V33.0362H139.089V18.7002C138.277 19.0798 137.385 19.2555 136.489 19.2122C135.591 19.2541 134.695 19.0784 133.879 18.7002Z" fill="#241C15"/>
<path d="M136.468 18.3522C138.229 18.3522 139.657 17.4205 139.657 16.2712C139.657 15.1219 138.229 14.1902 136.468 14.1902C134.707 14.1902 133.279 15.1219 133.279 16.2712C133.279 17.4205 134.707 18.3522 136.468 18.3522Z" fill="#241C15"/>
<path d="M90.8672 18.7002V33.0362H96.0772V18.7002C95.265 19.0798 94.3726 19.2555 93.4772 19.2122C92.5787 19.2541 91.6833 19.0784 90.8672 18.7002Z" fill="#241C15"/>
<path d="M93.4572 18.3522C95.2184 18.3522 96.6462 17.4205 96.6462 16.2712C96.6462 15.1219 95.2184 14.1902 93.4572 14.1902C91.6959 14.1902 90.2682 15.1219 90.2682 16.2712C90.2682 17.4205 91.6959 18.3522 93.4572 18.3522Z" fill="#241C15"/>
<path d="M172.777 18.3502C171.807 18.3735 170.867 18.686 170.076 19.2476C169.285 19.8092 168.68 20.5943 168.338 21.5022C167.985 22.2582 168.003 22.4802 167.746 22.4802C167.374 22.4802 167.682 21.8732 167.846 21.1602C168.046 20.3486 168.073 19.5039 167.925 18.6812H164.108V36.9991H169.318V31.1922C169.659 31.8334 170.165 32.372 170.784 32.7523C171.402 33.1326 172.111 33.3407 172.837 33.3552C176.604 33.3552 178.501 30.1671 178.501 25.8611C178.505 20.9771 176.235 18.3502 172.777 18.3502ZM171.347 29.9502C170.147 29.9502 169.273 28.4352 169.273 26.3232C169.273 24.2722 170.173 22.6971 171.306 22.6971C172.756 22.6971 173.374 24.0272 173.374 26.3232C173.374 28.7142 172.804 29.9521 171.347 29.9521V29.9502Z" fill="#241C15"/>
<path d="M34.0142 22.6852C34.3441 22.6425 34.6782 22.6425 35.0082 22.6852C35.2017 22.0744 35.2187 21.4213 35.0572 20.8012C34.8182 19.6592 34.4952 18.9682 33.8282 19.0752C33.1612 19.1822 33.1362 20.0102 33.3752 21.1522C33.4744 21.7035 33.6924 22.2267 34.0142 22.6852Z" fill="#241C15"/>
<path d="M28.2842 23.5893C28.7622 23.7983 29.0552 23.9372 29.1702 23.8162C29.2442 23.7402 29.2222 23.5962 29.1082 23.4092C28.8006 22.9661 28.3718 22.621 27.8732 22.4152C27.3394 22.1943 26.7578 22.1144 26.1843 22.1832C25.6107 22.252 25.0645 22.4673 24.5982 22.8083C24.2782 23.0423 23.9762 23.3663 24.0192 23.5633C24.0332 23.6273 24.0812 23.6742 24.1932 23.6902C24.9316 23.4815 25.6811 23.3146 26.4382 23.1902C27.0769 23.1702 27.7108 23.3073 28.2842 23.5893Z" fill="#241C15"/>
<path d="M27.3232 24.1362C26.8886 24.1824 26.4768 24.354 26.1382 24.6303C25.9814 24.7442 25.8741 24.9138 25.8382 25.1043C25.8374 25.1255 25.8412 25.1466 25.8495 25.1661C25.8578 25.1856 25.8704 25.2031 25.8862 25.2173C25.9136 25.2422 25.9492 25.256 25.9862 25.2563C26.1425 25.2333 26.2953 25.191 26.4412 25.1303C27.0789 24.8901 27.7677 24.8185 28.4412 24.9222C28.7542 24.9572 28.9012 24.9772 28.9702 24.8692C28.9879 24.838 28.9957 24.8022 28.9925 24.7664C28.9893 24.7307 28.9752 24.6968 28.9522 24.6693C28.7458 24.4528 28.489 24.2908 28.2047 24.1978C27.9205 24.1048 27.6176 24.0837 27.3232 24.1362Z" fill="#241C15"/>
<path d="M32.0792 26.1492C32.1984 26.1667 32.3202 26.151 32.431 26.1036C32.5418 26.0562 32.6374 25.979 32.7071 25.8807C32.7767 25.7824 32.8179 25.6666 32.8258 25.5464C32.8338 25.4261 32.8083 25.306 32.7523 25.1993C32.6962 25.0926 32.6117 25.0035 32.5081 24.9419C32.4045 24.8803 32.2859 24.8486 32.1653 24.8502C32.0448 24.8519 31.9271 24.8868 31.8253 24.9513C31.7234 25.0157 31.6413 25.107 31.5882 25.2152C31.4372 25.5232 31.6522 25.9412 32.0792 26.1492Z" fill="#241C15"/>
<path d="M34.7942 23.7762C34.4512 23.7702 34.1662 24.1472 34.1582 24.6182C34.1502 25.0892 34.4222 25.4752 34.7652 25.4802C35.1082 25.4852 35.3932 25.1092 35.4012 24.6392C35.4092 24.1692 35.1372 23.7822 34.7942 23.7762Z" fill="#241C15"/>
<path d="M11.7472 32.2602C11.6622 32.1532 11.5212 32.1862 11.3862 32.2172C11.2819 32.2457 11.1743 32.2608 11.0662 32.2622C10.9513 32.2646 10.8376 32.2385 10.7354 32.1861C10.6331 32.1338 10.5454 32.0568 10.4802 31.9622C10.4027 31.8047 10.3645 31.6307 10.3689 31.4551C10.3732 31.2796 10.42 31.1078 10.5052 30.9542C10.5282 30.8992 10.5562 30.8372 10.5862 30.7702C10.8231 30.3775 10.9662 29.9354 11.0042 29.4784C11.0422 29.0213 10.9741 28.5616 10.8052 28.1352C10.6379 27.7878 10.3871 27.4873 10.0752 27.2604C9.76341 27.0336 9.40024 26.8875 9.0182 26.8352C8.65739 26.7896 8.2909 26.8301 7.9488 26.9535C7.6067 27.0769 7.29875 27.2797 7.05021 27.5452C6.75498 27.8599 6.53561 28.238 6.40891 28.6505C6.28222 29.063 6.25152 29.499 6.31919 29.9252C6.37319 30.0722 6.4572 30.1132 6.5192 30.1252C6.6482 30.1422 6.83921 30.0482 6.95921 29.7252C6.96821 29.7022 6.9792 29.6662 6.9932 29.6252C7.06615 29.3658 7.17201 29.1168 7.30821 28.8842C7.40479 28.7329 7.53061 28.6025 7.67829 28.5005C7.82597 28.3985 7.99252 28.327 8.16819 28.2902C8.34787 28.2519 8.53339 28.2498 8.71388 28.2841C8.89436 28.3185 9.06619 28.3886 9.21922 28.4902C9.47747 28.6607 9.66908 28.915 9.76179 29.2103C9.8545 29.5055 9.84262 29.8237 9.72819 30.1112C9.54633 30.5696 9.45597 31.0591 9.4622 31.5522C9.44851 31.9147 9.57297 32.2688 9.8104 32.543C10.0478 32.8172 10.3805 32.9909 10.7412 33.0292C10.9436 33.0479 11.1472 33.0099 11.3292 32.9192C11.5111 32.8286 11.6642 32.6891 11.7712 32.5162C11.7945 32.4764 11.8048 32.4303 11.8005 32.3843C11.7962 32.3384 11.7775 32.295 11.7472 32.2602Z" fill="#241C15"/>
<path d="M43.4522 30.3912C43.4312 30.3172 43.2952 29.8192 43.1082 29.2192C43.0009 28.8715 42.8737 28.5303 42.7272 28.1972C43.2905 27.4175 43.5287 26.4493 43.3912 25.4972C43.2785 24.7634 42.9299 24.0863 42.3982 23.5682C41.3913 22.7116 40.1894 22.1154 38.8982 21.8322C38.7032 21.7772 38.0622 21.6012 38.0052 21.5842C38.0052 21.5472 37.9582 19.4792 37.9192 18.5912C37.9027 17.7008 37.7703 16.8164 37.5252 15.9602C37.221 14.7319 36.5917 13.6082 35.7032 12.7072C37.9272 10.4022 39.3152 7.86223 39.3122 5.68423C39.3062 1.49423 34.1602 0.227225 27.8202 2.85222L26.4772 3.4222C26.4712 3.4162 24.0482 1.03922 24.0122 1.00722C16.7832 -5.29878 -5.8198 19.8252 1.4072 25.9272L2.98619 27.2652C2.56012 28.4088 2.40972 29.6366 2.5472 30.8492C2.76095 32.6132 3.63185 34.2319 4.98619 35.3822C6.29961 36.5765 7.99769 37.2602 9.77219 37.3092C12.5842 43.7892 19.0102 47.7652 26.5442 47.9892C34.6252 48.2292 41.4092 44.4372 44.2522 37.6252C44.8219 36.1771 45.1513 34.6456 45.2272 33.0912C45.2212 31.1842 44.1402 30.3912 43.4522 30.3912ZM10.3872 35.4912C10.1398 35.5328 9.88899 35.5505 9.6382 35.5442C8.33042 35.4512 7.09216 34.92 6.12342 34.0366C5.15468 33.1531 4.51201 31.9689 4.2992 30.6752C4.0092 27.7942 5.48119 25.5752 8.08719 25.0522C8.44723 24.9811 8.81471 24.9549 9.1812 24.9742C10.6412 25.0542 12.7932 26.1742 13.2812 29.3562C13.7202 32.1732 13.0292 35.0412 10.3882 35.4912H10.3872ZM7.6612 23.3292C6.07799 23.6223 4.67041 24.5186 3.73519 25.8292C3.12255 25.3553 2.56326 24.8161 2.06719 24.2212C0.667188 21.5702 3.59019 16.4212 5.63019 13.5072C10.6702 6.31522 18.5632 0.871213 22.2182 1.85921C22.8122 2.02721 24.7792 4.30822 24.7792 4.30822C22.302 5.72716 19.9473 7.34974 17.7392 9.1592C13.1354 12.8606 9.64628 17.7655 7.6612 23.3292ZM33.2822 34.4142C33.3092 34.4019 33.3318 34.3816 33.3469 34.356C33.3619 34.3304 33.3686 34.3008 33.3662 34.2712C33.3624 34.2357 33.3447 34.2031 33.317 34.1807C33.2892 34.1582 33.2537 34.1476 33.2182 34.1512C30.7141 34.4509 28.1747 34.1927 25.7822 33.3952C26.1752 32.1162 27.2222 32.5782 28.8032 32.7062C31.2611 32.8518 33.7261 32.5855 36.0962 31.9182C38.0646 31.3559 39.913 30.4366 41.5492 29.2062C41.9095 30.0381 42.1655 30.9114 42.3112 31.8062C42.5867 31.7656 42.8678 31.817 43.1112 31.9522C43.4552 32.1642 43.7112 32.6042 43.5352 33.7422C43.2061 35.802 42.2353 37.7054 40.7612 39.1812C39.8125 40.208 38.6835 41.052 37.4302 41.6712C36.7323 42.0381 36.0047 42.3455 35.2552 42.5902C29.5292 44.4602 23.6682 42.4042 21.7792 37.9902C21.6258 37.653 21.4991 37.3043 21.4002 36.9472C20.9834 35.4601 20.9496 33.8918 21.3019 32.3881C21.6542 30.8845 22.3812 29.4944 23.4152 28.3472C23.5661 28.2169 23.6613 28.0336 23.6812 27.8352C23.6627 27.6563 23.5909 27.487 23.4752 27.3492C22.7272 26.2652 20.1382 24.4172 20.6582 20.8422C20.8023 19.6839 21.3574 18.6157 22.2225 17.8321C23.0876 17.0484 24.2053 16.6014 25.3722 16.5722L25.9032 16.6032C26.8112 16.6572 27.6032 16.7732 28.3502 16.8032C29.02 16.8627 29.6949 16.7835 30.3327 16.5705C30.9705 16.3575 31.5576 16.0153 32.0572 15.5652C32.4431 15.1672 32.9359 14.8894 33.4762 14.7652C33.6529 14.7191 33.8359 14.7012 34.0182 14.7122C34.3434 14.7249 34.659 14.8258 34.9312 15.0042C35.9992 15.7152 36.1502 17.4362 36.2062 18.6942C36.2372 19.4132 36.3242 21.1512 36.3542 21.6502C36.4222 22.7912 36.7222 22.9502 37.3292 23.1502C37.6702 23.2622 37.9872 23.3502 38.4542 23.4772C39.4748 23.6816 40.4295 24.1339 41.2342 24.7942C41.5073 25.0612 41.6854 25.4104 41.7412 25.7882C41.9082 27.0042 40.7972 28.5062 37.8572 29.8702C34.7755 31.2209 31.3996 31.7614 28.0502 31.4402L27.1062 31.3332C24.9512 31.0432 23.7222 33.8282 25.0152 35.7332C25.8492 36.9632 28.1152 37.7632 30.3902 37.7632C35.5982 37.7632 39.6012 35.5402 41.0902 33.6192C41.1328 33.5647 41.1725 33.5079 41.2092 33.4492C41.2822 33.3382 41.2222 33.2782 41.1302 33.3402C39.9142 34.1722 34.5102 37.4772 28.7302 36.4832C28.2721 36.4025 27.8222 36.2803 27.3862 36.1182C26.9678 36.0021 26.5885 35.7751 26.2884 35.4613C25.9883 35.1475 25.7785 34.7584 25.6812 34.3352C30.3452 35.7782 33.2822 34.4142 33.2822 34.4142ZM16.9702 13.4842C18.6473 11.507 20.6716 9.85288 22.9432 8.6032C22.9578 8.59718 22.9739 8.59573 22.9893 8.59905C23.0048 8.60237 23.0188 8.6103 23.0297 8.62179C23.0405 8.63328 23.0476 8.6478 23.05 8.66341C23.0525 8.67902 23.0501 8.69499 23.0432 8.70922C22.8014 9.13513 22.6149 9.59014 22.4882 10.0632C22.4847 10.079 22.486 10.0955 22.4919 10.1105C22.4978 10.1256 22.5081 10.1385 22.5215 10.1476C22.5348 10.1568 22.5506 10.1617 22.5667 10.1618C22.5829 10.1619 22.5987 10.1572 22.6122 10.1482C24.1846 9.11663 25.9836 8.48149 27.8552 8.2972C27.8725 8.29675 27.8895 8.3017 27.9038 8.31136C27.9181 8.32102 27.9291 8.33491 27.9351 8.3511C27.9412 8.36728 27.942 8.38494 27.9376 8.40163C27.9331 8.41832 27.9235 8.43321 27.9102 8.4442C27.6 8.68276 27.3226 8.96116 27.0852 9.27221C27.0763 9.28402 27.0709 9.29809 27.0695 9.3128C27.0682 9.3275 27.0709 9.3423 27.0774 9.35555C27.0839 9.36881 27.094 9.37998 27.1065 9.38787C27.119 9.39575 27.1334 9.40001 27.1482 9.4002C28.6768 9.45203 30.1746 9.8446 31.5322 10.5492C31.6142 10.5952 31.5552 10.7492 31.4642 10.7332C28.8492 10.1436 26.135 10.1508 23.5232 10.7542C21.209 11.276 19.0188 12.244 17.0752 13.6042C17.0589 13.614 17.0397 13.6178 17.0209 13.6148C17.0022 13.6119 16.985 13.6024 16.9725 13.5881C16.96 13.5738 16.9529 13.5556 16.9525 13.5366C16.9521 13.5176 16.9583 13.4991 16.9702 13.4842Z" fill="#241C15"/>
</svg>
